<mxfile host="app.diagrams.net" modified="2023-07-25T02:45:16.672Z" agent="Mozilla/5.0 (Windows NT 10.0; Win64; x64) AppleWebKit/537.36 (KHTML, like Gecko) Chrome/114.0.0.0 Safari/537.36" etag="HDjvvxrjp6DDllTgATot" version="21.6.5" type="device">
  <diagram id="C5RBs43oDa-KdzZeNtuy" name="Page-1">
    <mxGraphModel dx="610" dy="468" grid="1" gridSize="10" guides="1" tooltips="1" connect="1" arrows="1" fold="1" page="1" pageScale="1" pageWidth="827" pageHeight="1169" math="0" shadow="0">
      <root>
        <mxCell id="WIyWlLk6GJQsqaUBKTNV-0" />
        <mxCell id="WIyWlLk6GJQsqaUBKTNV-1" parent="WIyWlLk6GJQsqaUBKTNV-0" />
        <mxCell id="WIyWlLk6GJQsqaUBKTNV-2" value="" style="rounded=0;html=1;jettySize=auto;orthogonalLoop=1;fontSize=11;endArrow=block;endFill=0;endSize=8;strokeWidth=1;shadow=0;labelBackgroundColor=none;edgeStyle=orthogonalEdgeStyle;" parent="WIyWlLk6GJQsqaUBKTNV-1" source="WIyWlLk6GJQsqaUBKTNV-3" target="WIyWlLk6GJQsqaUBKTNV-6" edge="1">
          <mxGeometry relative="1" as="geometry" />
        </mxCell>
        <mxCell id="WIyWlLk6GJQsqaUBKTNV-3" value="Start" style="rounded=1;whiteSpace=wrap;html=1;fontSize=12;glass=0;strokeWidth=1;shadow=0;" parent="WIyWlLk6GJQsqaUBKTNV-1" vertex="1">
          <mxGeometry x="160" y="80" width="120" height="40" as="geometry" />
        </mxCell>
        <mxCell id="WIyWlLk6GJQsqaUBKTNV-4" value="Yes" style="rounded=0;html=1;jettySize=auto;orthogonalLoop=1;fontSize=11;endArrow=block;endFill=0;endSize=8;strokeWidth=1;shadow=0;labelBackgroundColor=none;edgeStyle=orthogonalEdgeStyle;" parent="WIyWlLk6GJQsqaUBKTNV-1" source="WIyWlLk6GJQsqaUBKTNV-6" target="0OU8B9zWDfa5xu7DXZj7-6" edge="1">
          <mxGeometry y="20" relative="1" as="geometry">
            <mxPoint as="offset" />
            <mxPoint x="220" y="290" as="targetPoint" />
          </mxGeometry>
        </mxCell>
        <mxCell id="0OU8B9zWDfa5xu7DXZj7-1" value="No" style="edgeStyle=orthogonalEdgeStyle;rounded=0;orthogonalLoop=1;jettySize=auto;html=1;entryX=0;entryY=0.5;entryDx=0;entryDy=0;" edge="1" parent="WIyWlLk6GJQsqaUBKTNV-1" source="WIyWlLk6GJQsqaUBKTNV-6" target="0OU8B9zWDfa5xu7DXZj7-0">
          <mxGeometry relative="1" as="geometry" />
        </mxCell>
        <mxCell id="WIyWlLk6GJQsqaUBKTNV-6" value="Health is&lt;br&gt;okay?" style="rhombus;whiteSpace=wrap;html=1;shadow=0;fontFamily=Helvetica;fontSize=12;align=center;strokeWidth=1;spacing=6;spacingTop=-4;" parent="WIyWlLk6GJQsqaUBKTNV-1" vertex="1">
          <mxGeometry x="170" y="170" width="100" height="80" as="geometry" />
        </mxCell>
        <mxCell id="WIyWlLk6GJQsqaUBKTNV-7" value="Eat Lobster" style="rounded=1;whiteSpace=wrap;html=1;fontSize=12;glass=0;strokeWidth=1;shadow=0;" parent="WIyWlLk6GJQsqaUBKTNV-1" vertex="1">
          <mxGeometry x="520" y="190" width="120" height="40" as="geometry" />
        </mxCell>
        <mxCell id="0OU8B9zWDfa5xu7DXZj7-2" value="Yes" style="edgeStyle=orthogonalEdgeStyle;rounded=0;orthogonalLoop=1;jettySize=auto;html=1;" edge="1" parent="WIyWlLk6GJQsqaUBKTNV-1" source="0OU8B9zWDfa5xu7DXZj7-0" target="WIyWlLk6GJQsqaUBKTNV-7">
          <mxGeometry relative="1" as="geometry">
            <Array as="points" />
          </mxGeometry>
        </mxCell>
        <mxCell id="0OU8B9zWDfa5xu7DXZj7-3" style="edgeStyle=orthogonalEdgeStyle;rounded=0;orthogonalLoop=1;jettySize=auto;html=1;exitX=0.5;exitY=1;exitDx=0;exitDy=0;" edge="1" parent="WIyWlLk6GJQsqaUBKTNV-1" source="0OU8B9zWDfa5xu7DXZj7-0" target="0OU8B9zWDfa5xu7DXZj7-4">
          <mxGeometry relative="1" as="geometry">
            <mxPoint x="510" y="290" as="targetPoint" />
            <Array as="points">
              <mxPoint x="380" y="270" />
            </Array>
          </mxGeometry>
        </mxCell>
        <mxCell id="0OU8B9zWDfa5xu7DXZj7-5" value="No" style="edgeLabel;html=1;align=center;verticalAlign=middle;resizable=0;points=[];" vertex="1" connectable="0" parent="0OU8B9zWDfa5xu7DXZj7-3">
          <mxGeometry x="0.2447" y="-2" relative="1" as="geometry">
            <mxPoint x="14" y="-2" as="offset" />
          </mxGeometry>
        </mxCell>
        <mxCell id="0OU8B9zWDfa5xu7DXZj7-0" value="Have&lt;br&gt;Lobsters?" style="rhombus;whiteSpace=wrap;html=1;shadow=0;fontFamily=Helvetica;fontSize=12;align=center;strokeWidth=1;spacing=6;spacingTop=-4;" vertex="1" parent="WIyWlLk6GJQsqaUBKTNV-1">
          <mxGeometry x="330" y="170" width="100" height="80" as="geometry" />
        </mxCell>
        <mxCell id="0OU8B9zWDfa5xu7DXZj7-4" value="Need User To Refill" style="rounded=1;whiteSpace=wrap;html=1;fontSize=12;glass=0;strokeWidth=1;shadow=0;" vertex="1" parent="WIyWlLk6GJQsqaUBKTNV-1">
          <mxGeometry x="530" y="250" width="120" height="40" as="geometry" />
        </mxCell>
        <mxCell id="0OU8B9zWDfa5xu7DXZj7-7" style="edgeStyle=orthogonalEdgeStyle;rounded=0;orthogonalLoop=1;jettySize=auto;html=1;exitX=0.5;exitY=1;exitDx=0;exitDy=0;" edge="1" parent="WIyWlLk6GJQsqaUBKTNV-1" source="0OU8B9zWDfa5xu7DXZj7-6">
          <mxGeometry relative="1" as="geometry">
            <mxPoint x="220" y="380" as="targetPoint" />
          </mxGeometry>
        </mxCell>
        <mxCell id="0OU8B9zWDfa5xu7DXZj7-6" value="Mouseover enemy" style="rounded=1;whiteSpace=wrap;html=1;fontSize=12;glass=0;strokeWidth=1;shadow=0;" vertex="1" parent="WIyWlLk6GJQsqaUBKTNV-1">
          <mxGeometry x="160" y="310" width="120" height="40" as="geometry" />
        </mxCell>
        <mxCell id="0OU8B9zWDfa5xu7DXZj7-10" value="No" style="edgeStyle=orthogonalEdgeStyle;rounded=0;orthogonalLoop=1;jettySize=auto;html=1;entryX=1;entryY=0.5;entryDx=0;entryDy=0;" edge="1" parent="WIyWlLk6GJQsqaUBKTNV-1" source="0OU8B9zWDfa5xu7DXZj7-8" target="0OU8B9zWDfa5xu7DXZj7-6">
          <mxGeometry relative="1" as="geometry">
            <mxPoint x="330" y="420" as="targetPoint" />
            <Array as="points">
              <mxPoint x="340" y="420" />
              <mxPoint x="340" y="330" />
            </Array>
          </mxGeometry>
        </mxCell>
        <mxCell id="0OU8B9zWDfa5xu7DXZj7-11" value="Yes" style="edgeStyle=orthogonalEdgeStyle;rounded=0;orthogonalLoop=1;jettySize=auto;html=1;exitX=0.5;exitY=1;exitDx=0;exitDy=0;" edge="1" parent="WIyWlLk6GJQsqaUBKTNV-1" source="0OU8B9zWDfa5xu7DXZj7-8" target="0OU8B9zWDfa5xu7DXZj7-12">
          <mxGeometry relative="1" as="geometry">
            <mxPoint x="220" y="500" as="targetPoint" />
          </mxGeometry>
        </mxCell>
        <mxCell id="0OU8B9zWDfa5xu7DXZj7-8" value="Enemy Highlighted?" style="rhombus;whiteSpace=wrap;html=1;shadow=0;fontFamily=Helvetica;fontSize=12;align=center;strokeWidth=1;spacing=6;spacingTop=-4;" vertex="1" parent="WIyWlLk6GJQsqaUBKTNV-1">
          <mxGeometry x="170" y="380" width="100" height="80" as="geometry" />
        </mxCell>
        <mxCell id="0OU8B9zWDfa5xu7DXZj7-13" value="" style="edgeStyle=orthogonalEdgeStyle;rounded=0;orthogonalLoop=1;jettySize=auto;html=1;" edge="1" parent="WIyWlLk6GJQsqaUBKTNV-1" source="0OU8B9zWDfa5xu7DXZj7-12" target="0OU8B9zWDfa5xu7DXZj7-31">
          <mxGeometry relative="1" as="geometry">
            <mxPoint x="220" y="630" as="targetPoint" />
          </mxGeometry>
        </mxCell>
        <mxCell id="0OU8B9zWDfa5xu7DXZj7-14" style="edgeStyle=orthogonalEdgeStyle;rounded=0;orthogonalLoop=1;jettySize=auto;html=1;" edge="1" parent="WIyWlLk6GJQsqaUBKTNV-1" source="0OU8B9zWDfa5xu7DXZj7-31" target="0OU8B9zWDfa5xu7DXZj7-16">
          <mxGeometry relative="1" as="geometry">
            <mxPoint x="440" y="530" as="targetPoint" />
          </mxGeometry>
        </mxCell>
        <mxCell id="0OU8B9zWDfa5xu7DXZj7-15" value="No (Glancing Blow)" style="edgeLabel;html=1;align=center;verticalAlign=middle;resizable=0;points=[];" vertex="1" connectable="0" parent="0OU8B9zWDfa5xu7DXZj7-14">
          <mxGeometry x="-0.1141" relative="1" as="geometry">
            <mxPoint x="9" as="offset" />
          </mxGeometry>
        </mxCell>
        <mxCell id="0OU8B9zWDfa5xu7DXZj7-12" value="Right Click &amp;amp; Knockout" style="rounded=1;whiteSpace=wrap;html=1;" vertex="1" parent="WIyWlLk6GJQsqaUBKTNV-1">
          <mxGeometry x="160" y="500" width="120" height="60" as="geometry" />
        </mxCell>
        <mxCell id="0OU8B9zWDfa5xu7DXZj7-19" value="" style="edgeStyle=orthogonalEdgeStyle;rounded=0;orthogonalLoop=1;jettySize=auto;html=1;" edge="1" parent="WIyWlLk6GJQsqaUBKTNV-1" source="0OU8B9zWDfa5xu7DXZj7-16" target="0OU8B9zWDfa5xu7DXZj7-18">
          <mxGeometry relative="1" as="geometry" />
        </mxCell>
        <mxCell id="0OU8B9zWDfa5xu7DXZj7-16" value="Mouseover enemy" style="rounded=1;whiteSpace=wrap;html=1;" vertex="1" parent="WIyWlLk6GJQsqaUBKTNV-1">
          <mxGeometry x="439" y="595" width="120" height="60" as="geometry" />
        </mxCell>
        <mxCell id="0OU8B9zWDfa5xu7DXZj7-20" style="edgeStyle=orthogonalEdgeStyle;rounded=0;orthogonalLoop=1;jettySize=auto;html=1;entryX=1;entryY=0.5;entryDx=0;entryDy=0;" edge="1" parent="WIyWlLk6GJQsqaUBKTNV-1" source="0OU8B9zWDfa5xu7DXZj7-18" target="0OU8B9zWDfa5xu7DXZj7-16">
          <mxGeometry relative="1" as="geometry">
            <Array as="points">
              <mxPoint x="619" y="720" />
              <mxPoint x="619" y="625" />
            </Array>
          </mxGeometry>
        </mxCell>
        <mxCell id="0OU8B9zWDfa5xu7DXZj7-21" value="No" style="edgeLabel;html=1;align=center;verticalAlign=middle;resizable=0;points=[];" vertex="1" connectable="0" parent="0OU8B9zWDfa5xu7DXZj7-20">
          <mxGeometry x="0.0507" y="-2" relative="1" as="geometry">
            <mxPoint as="offset" />
          </mxGeometry>
        </mxCell>
        <mxCell id="0OU8B9zWDfa5xu7DXZj7-22" value="Yes" style="edgeStyle=orthogonalEdgeStyle;rounded=0;orthogonalLoop=1;jettySize=auto;html=1;" edge="1" parent="WIyWlLk6GJQsqaUBKTNV-1" source="0OU8B9zWDfa5xu7DXZj7-18">
          <mxGeometry relative="1" as="geometry">
            <mxPoint x="499" y="805" as="targetPoint" />
          </mxGeometry>
        </mxCell>
        <mxCell id="0OU8B9zWDfa5xu7DXZj7-18" value="Enemy Highlighted?" style="rhombus;whiteSpace=wrap;html=1;shadow=0;fontFamily=Helvetica;fontSize=12;align=center;strokeWidth=1;spacing=6;spacingTop=-4;" vertex="1" parent="WIyWlLk6GJQsqaUBKTNV-1">
          <mxGeometry x="449" y="680" width="100" height="80" as="geometry" />
        </mxCell>
        <mxCell id="0OU8B9zWDfa5xu7DXZj7-23" value="Right Click &amp;amp; Pickpocket" style="rounded=1;whiteSpace=wrap;html=1;" vertex="1" parent="WIyWlLk6GJQsqaUBKTNV-1">
          <mxGeometry x="439" y="805" width="120" height="60" as="geometry" />
        </mxCell>
        <mxCell id="0OU8B9zWDfa5xu7DXZj7-24" value="" style="edgeStyle=orthogonalEdgeStyle;rounded=0;orthogonalLoop=1;jettySize=auto;html=1;" edge="1" parent="WIyWlLk6GJQsqaUBKTNV-1" source="0OU8B9zWDfa5xu7DXZj7-25" target="0OU8B9zWDfa5xu7DXZj7-29">
          <mxGeometry relative="1" as="geometry" />
        </mxCell>
        <mxCell id="0OU8B9zWDfa5xu7DXZj7-25" value="Mouseover enemy" style="rounded=1;whiteSpace=wrap;html=1;" vertex="1" parent="WIyWlLk6GJQsqaUBKTNV-1">
          <mxGeometry x="160" y="704" width="120" height="60" as="geometry" />
        </mxCell>
        <mxCell id="0OU8B9zWDfa5xu7DXZj7-26" style="edgeStyle=orthogonalEdgeStyle;rounded=0;orthogonalLoop=1;jettySize=auto;html=1;entryX=1;entryY=0.5;entryDx=0;entryDy=0;" edge="1" parent="WIyWlLk6GJQsqaUBKTNV-1" source="0OU8B9zWDfa5xu7DXZj7-29" target="0OU8B9zWDfa5xu7DXZj7-25">
          <mxGeometry relative="1" as="geometry">
            <Array as="points">
              <mxPoint x="340" y="829" />
              <mxPoint x="340" y="734" />
            </Array>
          </mxGeometry>
        </mxCell>
        <mxCell id="0OU8B9zWDfa5xu7DXZj7-27" value="No" style="edgeLabel;html=1;align=center;verticalAlign=middle;resizable=0;points=[];" vertex="1" connectable="0" parent="0OU8B9zWDfa5xu7DXZj7-26">
          <mxGeometry x="0.0507" y="-2" relative="1" as="geometry">
            <mxPoint as="offset" />
          </mxGeometry>
        </mxCell>
        <mxCell id="0OU8B9zWDfa5xu7DXZj7-28" value="Yes" style="edgeStyle=orthogonalEdgeStyle;rounded=0;orthogonalLoop=1;jettySize=auto;html=1;" edge="1" parent="WIyWlLk6GJQsqaUBKTNV-1" source="0OU8B9zWDfa5xu7DXZj7-29">
          <mxGeometry relative="1" as="geometry">
            <mxPoint x="220" y="914" as="targetPoint" />
          </mxGeometry>
        </mxCell>
        <mxCell id="0OU8B9zWDfa5xu7DXZj7-29" value="Enemy Highlighted?" style="rhombus;whiteSpace=wrap;html=1;shadow=0;fontFamily=Helvetica;fontSize=12;align=center;strokeWidth=1;spacing=6;spacingTop=-4;" vertex="1" parent="WIyWlLk6GJQsqaUBKTNV-1">
          <mxGeometry x="170" y="789" width="100" height="80" as="geometry" />
        </mxCell>
        <mxCell id="0OU8B9zWDfa5xu7DXZj7-30" value="Right Click &amp;amp; Pickpocket" style="rounded=1;whiteSpace=wrap;html=1;" vertex="1" parent="WIyWlLk6GJQsqaUBKTNV-1">
          <mxGeometry x="160" y="914" width="120" height="60" as="geometry" />
        </mxCell>
        <mxCell id="0OU8B9zWDfa5xu7DXZj7-32" style="edgeStyle=orthogonalEdgeStyle;rounded=0;orthogonalLoop=1;jettySize=auto;html=1;" edge="1" parent="WIyWlLk6GJQsqaUBKTNV-1" source="0OU8B9zWDfa5xu7DXZj7-31" target="0OU8B9zWDfa5xu7DXZj7-25">
          <mxGeometry relative="1" as="geometry">
            <mxPoint x="220" y="700" as="targetPoint" />
          </mxGeometry>
        </mxCell>
        <mxCell id="0OU8B9zWDfa5xu7DXZj7-33" value="Yes (they&#39;re unconscious)" style="edgeLabel;html=1;align=center;verticalAlign=middle;resizable=0;points=[];" vertex="1" connectable="0" parent="0OU8B9zWDfa5xu7DXZj7-32">
          <mxGeometry x="-0.1122" y="2" relative="1" as="geometry">
            <mxPoint as="offset" />
          </mxGeometry>
        </mxCell>
        <mxCell id="0OU8B9zWDfa5xu7DXZj7-31" value="Successful Knockout?" style="rhombus;whiteSpace=wrap;html=1;shadow=0;fontFamily=Helvetica;fontSize=12;align=center;strokeWidth=1;spacing=6;spacingTop=-4;" vertex="1" parent="WIyWlLk6GJQsqaUBKTNV-1">
          <mxGeometry x="170" y="585" width="100" height="80" as="geometry" />
        </mxCell>
        <mxCell id="0OU8B9zWDfa5xu7DXZj7-34" value="" style="rounded=0;html=1;jettySize=auto;orthogonalLoop=1;fontSize=11;endArrow=block;endFill=0;endSize=8;strokeWidth=1;shadow=0;labelBackgroundColor=none;edgeStyle=orthogonalEdgeStyle;" edge="1" parent="WIyWlLk6GJQsqaUBKTNV-1" source="0OU8B9zWDfa5xu7DXZj7-35" target="0OU8B9zWDfa5xu7DXZj7-38">
          <mxGeometry relative="1" as="geometry" />
        </mxCell>
        <mxCell id="0OU8B9zWDfa5xu7DXZj7-35" value="Start" style="rounded=1;whiteSpace=wrap;html=1;fontSize=12;glass=0;strokeWidth=1;shadow=0;fillColor=#d5e8d4;strokeColor=#82b366;" vertex="1" parent="WIyWlLk6GJQsqaUBKTNV-1">
          <mxGeometry x="830" y="50" width="120" height="40" as="geometry" />
        </mxCell>
        <mxCell id="0OU8B9zWDfa5xu7DXZj7-36" value="Yes" style="rounded=0;html=1;jettySize=auto;orthogonalLoop=1;fontSize=11;endArrow=block;endFill=0;endSize=8;strokeWidth=1;shadow=0;labelBackgroundColor=none;edgeStyle=orthogonalEdgeStyle;" edge="1" parent="WIyWlLk6GJQsqaUBKTNV-1" source="0OU8B9zWDfa5xu7DXZj7-38" target="0OU8B9zWDfa5xu7DXZj7-53">
          <mxGeometry x="-0.04" y="20" relative="1" as="geometry">
            <mxPoint as="offset" />
            <mxPoint x="890" y="280" as="targetPoint" />
          </mxGeometry>
        </mxCell>
        <mxCell id="0OU8B9zWDfa5xu7DXZj7-37" value="No" style="edgeStyle=orthogonalEdgeStyle;rounded=0;orthogonalLoop=1;jettySize=auto;html=1;entryX=0;entryY=0.5;entryDx=0;entryDy=0;" edge="1" parent="WIyWlLk6GJQsqaUBKTNV-1" source="0OU8B9zWDfa5xu7DXZj7-38" target="0OU8B9zWDfa5xu7DXZj7-43">
          <mxGeometry relative="1" as="geometry" />
        </mxCell>
        <mxCell id="0OU8B9zWDfa5xu7DXZj7-38" value="Health is&lt;br&gt;okay?" style="rhombus;whiteSpace=wrap;html=1;shadow=0;fontFamily=Helvetica;fontSize=12;align=center;strokeWidth=1;spacing=6;spacingTop=-4;" vertex="1" parent="WIyWlLk6GJQsqaUBKTNV-1">
          <mxGeometry x="840" y="140" width="100" height="80" as="geometry" />
        </mxCell>
        <mxCell id="0OU8B9zWDfa5xu7DXZj7-40" value="Yes" style="edgeStyle=orthogonalEdgeStyle;rounded=0;orthogonalLoop=1;jettySize=auto;html=1;entryX=1;entryY=0;entryDx=0;entryDy=0;" edge="1" parent="WIyWlLk6GJQsqaUBKTNV-1" source="0OU8B9zWDfa5xu7DXZj7-43" target="0OU8B9zWDfa5xu7DXZj7-38">
          <mxGeometry x="-0.6098" relative="1" as="geometry">
            <Array as="points">
              <mxPoint x="1060" y="120" />
              <mxPoint x="915" y="120" />
            </Array>
            <mxPoint x="1190" y="180" as="targetPoint" />
            <mxPoint as="offset" />
          </mxGeometry>
        </mxCell>
        <mxCell id="0OU8B9zWDfa5xu7DXZj7-41" style="edgeStyle=orthogonalEdgeStyle;rounded=0;orthogonalLoop=1;jettySize=auto;html=1;exitX=0.5;exitY=1;exitDx=0;exitDy=0;" edge="1" parent="WIyWlLk6GJQsqaUBKTNV-1" source="0OU8B9zWDfa5xu7DXZj7-43" target="0OU8B9zWDfa5xu7DXZj7-44">
          <mxGeometry relative="1" as="geometry">
            <mxPoint x="1180" y="260" as="targetPoint" />
            <Array as="points">
              <mxPoint x="1060" y="240" />
            </Array>
          </mxGeometry>
        </mxCell>
        <mxCell id="0OU8B9zWDfa5xu7DXZj7-42" value="No" style="edgeLabel;html=1;align=center;verticalAlign=middle;resizable=0;points=[];" vertex="1" connectable="0" parent="0OU8B9zWDfa5xu7DXZj7-41">
          <mxGeometry x="0.2447" y="-2" relative="1" as="geometry">
            <mxPoint x="-7" y="-2" as="offset" />
          </mxGeometry>
        </mxCell>
        <mxCell id="0OU8B9zWDfa5xu7DXZj7-43" value="Eat Lobster?" style="rhombus;whiteSpace=wrap;html=1;shadow=0;fontFamily=Helvetica;fontSize=12;align=center;strokeWidth=1;spacing=6;spacingTop=-4;" vertex="1" parent="WIyWlLk6GJQsqaUBKTNV-1">
          <mxGeometry x="1010" y="140" width="100" height="80" as="geometry" />
        </mxCell>
        <mxCell id="0OU8B9zWDfa5xu7DXZj7-44" value="Need User To Refill" style="rounded=1;whiteSpace=wrap;html=1;fontSize=12;glass=0;strokeWidth=1;shadow=0;fillColor=#f8cecc;strokeColor=#b85450;" vertex="1" parent="WIyWlLk6GJQsqaUBKTNV-1">
          <mxGeometry x="1160" y="220" width="120" height="40" as="geometry" />
        </mxCell>
        <mxCell id="0OU8B9zWDfa5xu7DXZj7-50" value="" style="edgeStyle=orthogonalEdgeStyle;rounded=0;orthogonalLoop=1;jettySize=auto;html=1;" edge="1" parent="WIyWlLk6GJQsqaUBKTNV-1" source="0OU8B9zWDfa5xu7DXZj7-53" target="0OU8B9zWDfa5xu7DXZj7-70">
          <mxGeometry relative="1" as="geometry">
            <mxPoint x="890" y="600" as="targetPoint" />
          </mxGeometry>
        </mxCell>
        <mxCell id="0OU8B9zWDfa5xu7DXZj7-51" style="edgeStyle=orthogonalEdgeStyle;rounded=0;orthogonalLoop=1;jettySize=auto;html=1;" edge="1" parent="WIyWlLk6GJQsqaUBKTNV-1" source="0OU8B9zWDfa5xu7DXZj7-70" target="0OU8B9zWDfa5xu7DXZj7-67">
          <mxGeometry relative="1" as="geometry">
            <mxPoint x="1108.9999999999998" y="415" as="targetPoint" />
            <Array as="points">
              <mxPoint x="860" y="480" />
              <mxPoint x="860" y="480" />
            </Array>
          </mxGeometry>
        </mxCell>
        <mxCell id="0OU8B9zWDfa5xu7DXZj7-52" value="No (Glancing Blow)&lt;br&gt;Set unconscious to false" style="edgeLabel;html=1;align=center;verticalAlign=middle;resizable=0;points=[];" vertex="1" connectable="0" parent="0OU8B9zWDfa5xu7DXZj7-51">
          <mxGeometry x="-0.1141" relative="1" as="geometry">
            <mxPoint x="-50" y="-7" as="offset" />
          </mxGeometry>
        </mxCell>
        <mxCell id="0OU8B9zWDfa5xu7DXZj7-53" value="Right Click (Standing) &amp;amp; Knockout" style="rounded=1;whiteSpace=wrap;html=1;" vertex="1" parent="WIyWlLk6GJQsqaUBKTNV-1">
          <mxGeometry x="830" y="270" width="120" height="60" as="geometry" />
        </mxCell>
        <mxCell id="0OU8B9zWDfa5xu7DXZj7-75" style="edgeStyle=orthogonalEdgeStyle;rounded=0;orthogonalLoop=1;jettySize=auto;html=1;" edge="1" parent="WIyWlLk6GJQsqaUBKTNV-1" source="0OU8B9zWDfa5xu7DXZj7-67" target="0OU8B9zWDfa5xu7DXZj7-120">
          <mxGeometry relative="1" as="geometry">
            <mxPoint x="890" y="610" as="targetPoint" />
          </mxGeometry>
        </mxCell>
        <mxCell id="0OU8B9zWDfa5xu7DXZj7-67" value="Right Click (Standing) &amp;amp; Pickpocket" style="rounded=1;whiteSpace=wrap;html=1;" vertex="1" parent="WIyWlLk6GJQsqaUBKTNV-1">
          <mxGeometry x="830" y="500" width="120" height="60" as="geometry" />
        </mxCell>
        <mxCell id="0OU8B9zWDfa5xu7DXZj7-68" style="edgeStyle=orthogonalEdgeStyle;rounded=0;orthogonalLoop=1;jettySize=auto;html=1;" edge="1" parent="WIyWlLk6GJQsqaUBKTNV-1" source="0OU8B9zWDfa5xu7DXZj7-70" target="0OU8B9zWDfa5xu7DXZj7-67">
          <mxGeometry relative="1" as="geometry">
            <mxPoint x="890" y="494" as="targetPoint" />
            <Array as="points">
              <mxPoint x="920" y="480" />
              <mxPoint x="920" y="480" />
            </Array>
          </mxGeometry>
        </mxCell>
        <mxCell id="0OU8B9zWDfa5xu7DXZj7-73" value="Yes (They&#39;re unconscious)&lt;br&gt;Set unconscious to true" style="edgeLabel;html=1;align=center;verticalAlign=middle;resizable=0;points=[];" vertex="1" connectable="0" parent="0OU8B9zWDfa5xu7DXZj7-68">
          <mxGeometry x="0.0593" y="-2" relative="1" as="geometry">
            <mxPoint x="72" y="-13" as="offset" />
          </mxGeometry>
        </mxCell>
        <mxCell id="0OU8B9zWDfa5xu7DXZj7-70" value="Successful Knockout?" style="rhombus;whiteSpace=wrap;html=1;shadow=0;fontFamily=Helvetica;fontSize=12;align=center;strokeWidth=1;spacing=6;spacingTop=-4;" vertex="1" parent="WIyWlLk6GJQsqaUBKTNV-1">
          <mxGeometry x="840" y="375" width="100" height="80" as="geometry" />
        </mxCell>
        <mxCell id="0OU8B9zWDfa5xu7DXZj7-78" style="edgeStyle=orthogonalEdgeStyle;rounded=0;orthogonalLoop=1;jettySize=auto;html=1;entryX=1;entryY=0.25;entryDx=0;entryDy=0;" edge="1" parent="WIyWlLk6GJQsqaUBKTNV-1" source="0OU8B9zWDfa5xu7DXZj7-76" target="0OU8B9zWDfa5xu7DXZj7-35">
          <mxGeometry relative="1" as="geometry">
            <Array as="points">
              <mxPoint x="1360" y="485" />
              <mxPoint x="1360" y="60" />
            </Array>
          </mxGeometry>
        </mxCell>
        <mxCell id="0OU8B9zWDfa5xu7DXZj7-76" value="Right Click (Laying Down) &amp;amp; Pickpocket" style="rounded=1;whiteSpace=wrap;html=1;" vertex="1" parent="WIyWlLk6GJQsqaUBKTNV-1">
          <mxGeometry x="1210" y="455" width="120" height="60" as="geometry" />
        </mxCell>
        <mxCell id="0OU8B9zWDfa5xu7DXZj7-80" style="edgeStyle=orthogonalEdgeStyle;rounded=0;orthogonalLoop=1;jettySize=auto;html=1;" edge="1" parent="WIyWlLk6GJQsqaUBKTNV-1" source="0OU8B9zWDfa5xu7DXZj7-79">
          <mxGeometry relative="1" as="geometry">
            <mxPoint x="880" y="830" as="targetPoint" />
          </mxGeometry>
        </mxCell>
        <mxCell id="0OU8B9zWDfa5xu7DXZj7-79" value="Start" style="rounded=1;whiteSpace=wrap;html=1;fontSize=12;glass=0;strokeWidth=1;shadow=0;fillColor=#d5e8d4;strokeColor=#82b366;" vertex="1" parent="WIyWlLk6GJQsqaUBKTNV-1">
          <mxGeometry x="820" y="740" width="120" height="40" as="geometry" />
        </mxCell>
        <mxCell id="0OU8B9zWDfa5xu7DXZj7-82" style="edgeStyle=orthogonalEdgeStyle;rounded=0;orthogonalLoop=1;jettySize=auto;html=1;" edge="1" parent="WIyWlLk6GJQsqaUBKTNV-1" source="0OU8B9zWDfa5xu7DXZj7-81" target="0OU8B9zWDfa5xu7DXZj7-89">
          <mxGeometry relative="1" as="geometry">
            <mxPoint x="880" y="1150" as="targetPoint" />
          </mxGeometry>
        </mxCell>
        <mxCell id="0OU8B9zWDfa5xu7DXZj7-87" value="No" style="edgeLabel;html=1;align=center;verticalAlign=middle;resizable=0;points=[];" vertex="1" connectable="0" parent="0OU8B9zWDfa5xu7DXZj7-82">
          <mxGeometry x="0.1252" y="2" relative="1" as="geometry">
            <mxPoint as="offset" />
          </mxGeometry>
        </mxCell>
        <mxCell id="0OU8B9zWDfa5xu7DXZj7-84" style="edgeStyle=orthogonalEdgeStyle;rounded=0;orthogonalLoop=1;jettySize=auto;html=1;" edge="1" parent="WIyWlLk6GJQsqaUBKTNV-1" source="0OU8B9zWDfa5xu7DXZj7-81" target="0OU8B9zWDfa5xu7DXZj7-85">
          <mxGeometry relative="1" as="geometry">
            <mxPoint x="1080" y="1045" as="targetPoint" />
          </mxGeometry>
        </mxCell>
        <mxCell id="0OU8B9zWDfa5xu7DXZj7-86" value="Yes" style="edgeLabel;html=1;align=center;verticalAlign=middle;resizable=0;points=[];" vertex="1" connectable="0" parent="0OU8B9zWDfa5xu7DXZj7-84">
          <mxGeometry x="-0.1795" y="-1" relative="1" as="geometry">
            <mxPoint as="offset" />
          </mxGeometry>
        </mxCell>
        <mxCell id="0OU8B9zWDfa5xu7DXZj7-81" value="Already &lt;br&gt;hovering over enemy" style="rhombus;whiteSpace=wrap;html=1;" vertex="1" parent="WIyWlLk6GJQsqaUBKTNV-1">
          <mxGeometry x="825" y="990" width="110" height="110" as="geometry" />
        </mxCell>
        <mxCell id="0OU8B9zWDfa5xu7DXZj7-83" value="Right Clicking Enemy" style="text;html=1;strokeColor=none;fillColor=none;align=center;verticalAlign=middle;whiteSpace=wrap;rounded=0;" vertex="1" parent="WIyWlLk6GJQsqaUBKTNV-1">
          <mxGeometry x="810" y="710" width="140" height="20" as="geometry" />
        </mxCell>
        <mxCell id="0OU8B9zWDfa5xu7DXZj7-94" style="edgeStyle=orthogonalEdgeStyle;rounded=0;orthogonalLoop=1;jettySize=auto;html=1;" edge="1" parent="WIyWlLk6GJQsqaUBKTNV-1" source="0OU8B9zWDfa5xu7DXZj7-85" target="0OU8B9zWDfa5xu7DXZj7-95">
          <mxGeometry relative="1" as="geometry">
            <mxPoint x="1150" y="1045" as="targetPoint" />
          </mxGeometry>
        </mxCell>
        <mxCell id="0OU8B9zWDfa5xu7DXZj7-109" value="" style="edgeStyle=orthogonalEdgeStyle;rounded=0;orthogonalLoop=1;jettySize=auto;html=1;" edge="1" parent="WIyWlLk6GJQsqaUBKTNV-1" source="0OU8B9zWDfa5xu7DXZj7-85" target="0OU8B9zWDfa5xu7DXZj7-81">
          <mxGeometry relative="1" as="geometry" />
        </mxCell>
        <mxCell id="0OU8B9zWDfa5xu7DXZj7-85" value="Right Click" style="rounded=1;whiteSpace=wrap;html=1;" vertex="1" parent="WIyWlLk6GJQsqaUBKTNV-1">
          <mxGeometry x="1000" y="1015" width="120" height="60" as="geometry" />
        </mxCell>
        <mxCell id="0OU8B9zWDfa5xu7DXZj7-97" style="edgeStyle=orthogonalEdgeStyle;rounded=0;orthogonalLoop=1;jettySize=auto;html=1;" edge="1" parent="WIyWlLk6GJQsqaUBKTNV-1" source="0OU8B9zWDfa5xu7DXZj7-89" target="0OU8B9zWDfa5xu7DXZj7-98">
          <mxGeometry relative="1" as="geometry">
            <mxPoint x="880" y="1270" as="targetPoint" />
          </mxGeometry>
        </mxCell>
        <mxCell id="0OU8B9zWDfa5xu7DXZj7-89" value="PixelSearch" style="rounded=1;whiteSpace=wrap;html=1;" vertex="1" parent="WIyWlLk6GJQsqaUBKTNV-1">
          <mxGeometry x="820" y="1160" width="120" height="60" as="geometry" />
        </mxCell>
        <mxCell id="0OU8B9zWDfa5xu7DXZj7-91" value="No" style="edgeStyle=orthogonalEdgeStyle;rounded=0;orthogonalLoop=1;jettySize=auto;html=1;exitX=0.5;exitY=1;exitDx=0;exitDy=0;" edge="1" parent="WIyWlLk6GJQsqaUBKTNV-1" source="0OU8B9zWDfa5xu7DXZj7-90" target="0OU8B9zWDfa5xu7DXZj7-81">
          <mxGeometry relative="1" as="geometry" />
        </mxCell>
        <mxCell id="0OU8B9zWDfa5xu7DXZj7-92" value="Yes" style="edgeStyle=orthogonalEdgeStyle;rounded=0;orthogonalLoop=1;jettySize=auto;html=1;exitX=1;exitY=0.5;exitDx=0;exitDy=0;" edge="1" parent="WIyWlLk6GJQsqaUBKTNV-1" source="0OU8B9zWDfa5xu7DXZj7-90">
          <mxGeometry relative="1" as="geometry">
            <mxPoint x="1010" y="885" as="targetPoint" />
          </mxGeometry>
        </mxCell>
        <mxCell id="0OU8B9zWDfa5xu7DXZj7-90" value="Right Click &lt;br&gt;Menu&lt;br&gt;&amp;nbsp;is Open" style="rhombus;whiteSpace=wrap;html=1;" vertex="1" parent="WIyWlLk6GJQsqaUBKTNV-1">
          <mxGeometry x="825" y="830" width="110" height="110" as="geometry" />
        </mxCell>
        <mxCell id="0OU8B9zWDfa5xu7DXZj7-95" value="return true" style="rounded=1;whiteSpace=wrap;html=1;fillColor=#f8cecc;strokeColor=#b85450;" vertex="1" parent="WIyWlLk6GJQsqaUBKTNV-1">
          <mxGeometry x="1160" y="1015" width="120" height="60" as="geometry" />
        </mxCell>
        <mxCell id="0OU8B9zWDfa5xu7DXZj7-96" value="return true" style="rounded=1;whiteSpace=wrap;html=1;fillColor=#f8cecc;strokeColor=#b85450;" vertex="1" parent="WIyWlLk6GJQsqaUBKTNV-1">
          <mxGeometry x="1010" y="854" width="120" height="60" as="geometry" />
        </mxCell>
        <mxCell id="0OU8B9zWDfa5xu7DXZj7-99" value="Yes" style="edgeStyle=orthogonalEdgeStyle;rounded=0;orthogonalLoop=1;jettySize=auto;html=1;" edge="1" parent="WIyWlLk6GJQsqaUBKTNV-1" source="0OU8B9zWDfa5xu7DXZj7-98">
          <mxGeometry relative="1" as="geometry">
            <mxPoint x="880" y="1420" as="targetPoint" />
          </mxGeometry>
        </mxCell>
        <mxCell id="0OU8B9zWDfa5xu7DXZj7-100" style="edgeStyle=orthogonalEdgeStyle;rounded=0;orthogonalLoop=1;jettySize=auto;html=1;exitX=1;exitY=0.5;exitDx=0;exitDy=0;" edge="1" parent="WIyWlLk6GJQsqaUBKTNV-1" source="0OU8B9zWDfa5xu7DXZj7-98" target="0OU8B9zWDfa5xu7DXZj7-102">
          <mxGeometry relative="1" as="geometry">
            <mxPoint x="1000" y="1300" as="targetPoint" />
            <Array as="points">
              <mxPoint x="1000" y="1300" />
            </Array>
          </mxGeometry>
        </mxCell>
        <mxCell id="0OU8B9zWDfa5xu7DXZj7-101" value="No" style="edgeLabel;html=1;align=center;verticalAlign=middle;resizable=0;points=[];" vertex="1" connectable="0" parent="0OU8B9zWDfa5xu7DXZj7-100">
          <mxGeometry x="0.0982" y="2" relative="1" as="geometry">
            <mxPoint as="offset" />
          </mxGeometry>
        </mxCell>
        <mxCell id="0OU8B9zWDfa5xu7DXZj7-98" value="Found&lt;br&gt;Pixel" style="rhombus;whiteSpace=wrap;html=1;" vertex="1" parent="WIyWlLk6GJQsqaUBKTNV-1">
          <mxGeometry x="840" y="1260" width="80" height="80" as="geometry" />
        </mxCell>
        <mxCell id="0OU8B9zWDfa5xu7DXZj7-103" style="edgeStyle=orthogonalEdgeStyle;rounded=0;orthogonalLoop=1;jettySize=auto;html=1;" edge="1" parent="WIyWlLk6GJQsqaUBKTNV-1" source="0OU8B9zWDfa5xu7DXZj7-104" target="0OU8B9zWDfa5xu7DXZj7-89">
          <mxGeometry relative="1" as="geometry">
            <mxPoint x="1060" y="1250" as="targetPoint" />
            <Array as="points">
              <mxPoint x="1210" y="1190" />
            </Array>
          </mxGeometry>
        </mxCell>
        <mxCell id="0OU8B9zWDfa5xu7DXZj7-106" value="Yes" style="edgeLabel;html=1;align=center;verticalAlign=middle;resizable=0;points=[];" vertex="1" connectable="0" parent="0OU8B9zWDfa5xu7DXZj7-103">
          <mxGeometry x="-0.2708" y="-2" relative="1" as="geometry">
            <mxPoint as="offset" />
          </mxGeometry>
        </mxCell>
        <mxCell id="0OU8B9zWDfa5xu7DXZj7-102" value="Increase &lt;br&gt;Search Area" style="rounded=0;whiteSpace=wrap;html=1;" vertex="1" parent="WIyWlLk6GJQsqaUBKTNV-1">
          <mxGeometry x="1000" y="1270" width="120" height="60" as="geometry" />
        </mxCell>
        <mxCell id="0OU8B9zWDfa5xu7DXZj7-105" value="" style="edgeStyle=orthogonalEdgeStyle;rounded=0;orthogonalLoop=1;jettySize=auto;html=1;" edge="1" parent="WIyWlLk6GJQsqaUBKTNV-1" source="0OU8B9zWDfa5xu7DXZj7-102" target="0OU8B9zWDfa5xu7DXZj7-104">
          <mxGeometry relative="1" as="geometry">
            <mxPoint x="940" y="1190" as="targetPoint" />
            <mxPoint x="1060" y="1270" as="sourcePoint" />
            <Array as="points">
              <mxPoint x="1140" y="1300" />
              <mxPoint x="1140" y="1300" />
            </Array>
          </mxGeometry>
        </mxCell>
        <mxCell id="0OU8B9zWDfa5xu7DXZj7-107" value="No" style="edgeStyle=orthogonalEdgeStyle;rounded=0;orthogonalLoop=1;jettySize=auto;html=1;exitX=1;exitY=0.5;exitDx=0;exitDy=0;" edge="1" parent="WIyWlLk6GJQsqaUBKTNV-1" source="0OU8B9zWDfa5xu7DXZj7-104" target="0OU8B9zWDfa5xu7DXZj7-108">
          <mxGeometry relative="1" as="geometry">
            <mxPoint x="1180" y="1190" as="targetPoint" />
          </mxGeometry>
        </mxCell>
        <mxCell id="0OU8B9zWDfa5xu7DXZj7-104" value="x &amp;amp; y &lt;br&gt;within &lt;br&gt;bounds" style="rhombus;whiteSpace=wrap;html=1;" vertex="1" parent="WIyWlLk6GJQsqaUBKTNV-1">
          <mxGeometry x="1160" y="1255" width="100" height="90" as="geometry" />
        </mxCell>
        <mxCell id="0OU8B9zWDfa5xu7DXZj7-108" value="return false" style="rounded=1;whiteSpace=wrap;html=1;fillColor=#f8cecc;strokeColor=#b85450;" vertex="1" parent="WIyWlLk6GJQsqaUBKTNV-1">
          <mxGeometry x="1310" y="1270" width="120" height="60" as="geometry" />
        </mxCell>
        <mxCell id="0OU8B9zWDfa5xu7DXZj7-113" style="edgeStyle=orthogonalEdgeStyle;rounded=0;orthogonalLoop=1;jettySize=auto;html=1;" edge="1" parent="WIyWlLk6GJQsqaUBKTNV-1" source="0OU8B9zWDfa5xu7DXZj7-110" target="0OU8B9zWDfa5xu7DXZj7-112">
          <mxGeometry relative="1" as="geometry" />
        </mxCell>
        <mxCell id="0OU8B9zWDfa5xu7DXZj7-110" value="Mouseover Enemy" style="rounded=1;whiteSpace=wrap;html=1;" vertex="1" parent="WIyWlLk6GJQsqaUBKTNV-1">
          <mxGeometry x="820" y="1420" width="120" height="60" as="geometry" />
        </mxCell>
        <mxCell id="0OU8B9zWDfa5xu7DXZj7-115" value="Yes" style="edgeStyle=orthogonalEdgeStyle;rounded=0;orthogonalLoop=1;jettySize=auto;html=1;" edge="1" parent="WIyWlLk6GJQsqaUBKTNV-1" source="0OU8B9zWDfa5xu7DXZj7-112" target="0OU8B9zWDfa5xu7DXZj7-114">
          <mxGeometry relative="1" as="geometry" />
        </mxCell>
        <mxCell id="0OU8B9zWDfa5xu7DXZj7-119" value="No" style="edgeStyle=orthogonalEdgeStyle;rounded=0;orthogonalLoop=1;jettySize=auto;html=1;" edge="1" parent="WIyWlLk6GJQsqaUBKTNV-1" source="0OU8B9zWDfa5xu7DXZj7-112" target="0OU8B9zWDfa5xu7DXZj7-89">
          <mxGeometry relative="1" as="geometry">
            <mxPoint x="780" y="1565" as="targetPoint" />
            <Array as="points">
              <mxPoint x="770" y="1565" />
              <mxPoint x="770" y="1190" />
            </Array>
          </mxGeometry>
        </mxCell>
        <mxCell id="0OU8B9zWDfa5xu7DXZj7-112" value="Hovering&lt;br&gt;over&lt;br&gt;enemy" style="rhombus;whiteSpace=wrap;html=1;" vertex="1" parent="WIyWlLk6GJQsqaUBKTNV-1">
          <mxGeometry x="835" y="1520" width="90" height="90" as="geometry" />
        </mxCell>
        <mxCell id="0OU8B9zWDfa5xu7DXZj7-116" style="edgeStyle=orthogonalEdgeStyle;rounded=0;orthogonalLoop=1;jettySize=auto;html=1;" edge="1" parent="WIyWlLk6GJQsqaUBKTNV-1" source="0OU8B9zWDfa5xu7DXZj7-114" target="0OU8B9zWDfa5xu7DXZj7-117">
          <mxGeometry relative="1" as="geometry">
            <mxPoint x="1150" y="1565" as="targetPoint" />
          </mxGeometry>
        </mxCell>
        <mxCell id="0OU8B9zWDfa5xu7DXZj7-114" value="Right Click" style="rounded=1;whiteSpace=wrap;html=1;" vertex="1" parent="WIyWlLk6GJQsqaUBKTNV-1">
          <mxGeometry x="820" y="1670" width="120" height="60" as="geometry" />
        </mxCell>
        <mxCell id="0OU8B9zWDfa5xu7DXZj7-117" value="return true" style="rounded=1;whiteSpace=wrap;html=1;fillColor=#f8cecc;strokeColor=#b85450;" vertex="1" parent="WIyWlLk6GJQsqaUBKTNV-1">
          <mxGeometry x="820" y="1770" width="120" height="60" as="geometry" />
        </mxCell>
        <mxCell id="0OU8B9zWDfa5xu7DXZj7-121" value="Yes" style="edgeStyle=orthogonalEdgeStyle;rounded=0;orthogonalLoop=1;jettySize=auto;html=1;" edge="1" parent="WIyWlLk6GJQsqaUBKTNV-1" source="0OU8B9zWDfa5xu7DXZj7-120" target="0OU8B9zWDfa5xu7DXZj7-76">
          <mxGeometry relative="1" as="geometry">
            <Array as="points">
              <mxPoint x="1150" y="485" />
              <mxPoint x="1150" y="485" />
            </Array>
          </mxGeometry>
        </mxCell>
        <mxCell id="0OU8B9zWDfa5xu7DXZj7-122" value="No" style="edgeStyle=orthogonalEdgeStyle;rounded=0;orthogonalLoop=1;jettySize=auto;html=1;endArrow=classicThin;endFill=0;" edge="1" parent="WIyWlLk6GJQsqaUBKTNV-1" source="0OU8B9zWDfa5xu7DXZj7-120">
          <mxGeometry x="-0.8065" relative="1" as="geometry">
            <mxPoint x="1360" y="390" as="targetPoint" />
            <Array as="points">
              <mxPoint x="1360" y="570" />
            </Array>
            <mxPoint as="offset" />
          </mxGeometry>
        </mxCell>
        <mxCell id="0OU8B9zWDfa5xu7DXZj7-120" value="&amp;nbsp; &amp;nbsp;Unconscious?" style="triangle;whiteSpace=wrap;html=1;rotation=0;flipH=1;" vertex="1" parent="WIyWlLk6GJQsqaUBKTNV-1">
          <mxGeometry x="1050" y="480" width="90" height="100" as="geometry" />
        </mxCell>
      </root>
    </mxGraphModel>
  </diagram>
</mxfile>
